<?xml version="1.0" encoding="utf-8"?>
<!-- Generator: Adobe Illustrator 21.0.0, SVG Export Plug-In . SVG Version: 6.00 Build 0)  -->
<svg version="1.1" id="Layer_1" xmlns="http://www.w3.org/2000/svg" xmlns:xlink="http://www.w3.org/1999/xlink" x="0px" y="0px"
	 viewBox="0 0 1440 442" style="enable-background:new 0 0 1440 442;" xml:space="preserve">
<style type="text/css">
	.st0{fill:url(#SVGID_1_);}
	.st1{fill:#E0312D;}
	.st2{fill:none;}
	.st3{fill:#FFFFFF;}
	.st4{opacity:0.25;fill:#FD6868;enable-background:new    ;}
	.st5{fill:#FD6868;}
	.st6{fill:url(#SVGID_2_);}
	.st7{fill:url(#SVGID_3_);}
	.st8{fill:#484756;}
	.st9{fill:url(#SVGID_4_);}
	.st10{fill:url(#SVGID_5_);}
	.st11{fill:url(#SVGID_6_);}
	.st12{fill:url(#SVGID_7_);}
	.st13{fill:url(#SVGID_8_);}
	.st14{fill:#25233A;}
	.st15{fill:url(#SVGID_9_);}
	.st16{fill:url(#SVGID_10_);}
	.st17{fill:url(#SVGID_11_);}
	.st18{fill:url(#SVGID_12_);}
	.st19{fill:url(#SVGID_13_);}
	.st20{fill:url(#SVGID_14_);}
	.st21{fill:url(#SVGID_15_);}
	.st22{fill:url(#SVGID_16_);}
	.st23{fill:url(#SVGID_17_);}
	.st24{fill:url(#SVGID_18_);}
	.st25{fill:url(#SVGID_19_);}
	.st26{fill:url(#SVGID_20_);}
	.st27{fill:url(#SVGID_21_);}
	.st28{fill:url(#SVGID_22_);}
	.st29{fill:url(#SVGID_23_);}
	.st30{fill:url(#SVGID_24_);}
	.st31{fill:url(#SVGID_25_);}
	.st32{fill:url(#SVGID_26_);}
	.st33{fill:url(#SVGID_27_);}
	.st34{fill:url(#SVGID_28_);}
	.st35{fill:url(#SVGID_29_);}
	.st36{fill:url(#SVGID_30_);}
	.st37{fill:url(#SVGID_31_);}
	.st38{fill:url(#SVGID_32_);}
	.st39{fill:url(#SVGID_33_);}
	.st40{fill:url(#SVGID_34_);}
	.st41{fill:url(#SVGID_35_);}
	.st42{opacity:0.27;fill:#FD6868;enable-background:new    ;}
	.st43{display:none;fill:#FD6868;}
	.st44{display:none;fill:url(#SVGID_36_);}
	.st45{fill:url(#SVGID_37_);}
	.st46{fill:url(#SVGID_38_);}
	.st47{fill:url(#SVGID_39_);}
	.st48{fill:url(#SVGID_40_);}
	.st49{fill:url(#SVGID_41_);}
	.st50{fill:url(#SVGID_42_);}
	.st51{fill:url(#SVGID_43_);}
	.st52{fill:url(#SVGID_44_);}
	.st53{fill:url(#SVGID_45_);}
	.st54{fill:url(#SVGID_46_);}
	.st55{fill:url(#SVGID_47_);}
	.st56{fill:url(#SVGID_48_);}
	.st57{fill:url(#SVGID_49_);}
	.st58{fill:url(#SVGID_50_);}
	.st59{fill:url(#SVGID_51_);}
	.st60{fill:url(#SVGID_52_);}
	.st61{fill:url(#SVGID_53_);}
	.st62{fill:url(#SVGID_54_);}
	.st63{fill:url(#SVGID_55_);}
	.st64{fill:url(#SVGID_56_);}
	.st65{opacity:0.45;fill:url(#SVGID_57_);enable-background:new    ;}
	.st66{opacity:0.45;fill:url(#SVGID_58_);enable-background:new    ;}
</style>
<linearGradient id="SVGID_1_" gradientUnits="userSpaceOnUse" x1="0" y1="221" x2="1440" y2="221">
	<stop  offset="0" style="stop-color:#FC4A1A"/>
	<stop  offset="1" style="stop-color:#F7B733"/>
</linearGradient>
<path class="st0" d="M1440,442H0c0-72.8,0-145.7,0-218.5c0-4.3,0-8.7,0-13C0,140.3,0,70.2,0,0c30.3,0,60.7,0,91,0c3.7,0,7.3,0,11,0
	c446,0,892,0,1338,0C1440,147.3,1440,294.7,1440,442z"/>
<path class="st1" d="M290,258c96.7,54.7,179.9,79.6,228,94c12.6,3.7,24.4,7,37.3,9.9C703.6,395.1,854.8,394.4,935,390
	c190.8-10.6,195.7-36.4,308-26c82.3,7.6,149.8,28,197,45.9v-77.3c-32.3-5-60-8.3-71-9.6c-72.6-8.7-135.1-7.9-163-8
	c-75.2-0.4-124.9,13-169,22c-95.8,19.5-304.7,62-496-6c-48.3-17.2-161.1-57.3-255-159C221.7,102.4,182.4,21.3,91,0H0v94
	c26.4,12.9,66.7,33.3,115,60C202.1,202.2,239.4,229.4,290,258z"/>
<path class="st1" d="M0,94.4V108h0C0,103.5,0,98.9,0,94.4z"/>
<g>
	<path class="st2" d="M0.1,108h0.1h0c0-4.5,0-9.1,0-13.6c26.4,12.9,66.7,33.3,115,59.9c87.1,48.1,124.4,75.3,175,103.9
		c96.7,54.6,179.9,79.5,228,93.9c12.6,3.7,24.4,7,37.3,9.9c148.3,33.2,299.5,32.5,379.7,28.1c190.8-10.6,195.7-36.4,308-26
		c82.3,7.6,149.8,28,197,45.8V427h1V0H0L0.1,108L0.1,108z"/>
	<path class="st3" d="M1243,364.1c-112.3-10.4-117.2,15.4-308,26c-80.2,4.4-231.4,5.1-379.7-28.1c-12.9-2.9-24.7-6.2-37.3-9.9
		c-48.1-14.4-131.3-39.3-228-93.9c-50.6-28.6-87.9-55.7-175-103.9c-48.3-26.7-88.6-47-115-59.9c0,4.5,0,9.1,0,13.6H0.1h0h0H0v334
		h1440v-15v-17.1C1392.8,392,1325.3,371.7,1243,364.1z"/>
</g>
<g>
	<path class="st4" d="M99,196.7c1.7-16.1,12-31.5,27.1-37.5c12.9-5.2,27.4-3.3,41.1-5.9c16.1-3,30.4-12,45.1-19.3
		c7.7-3.8,15.8-7.3,24.2-9c0.6-0.1,1.2-0.2,1.8-0.3c7.7-1.1,15.6,1,22.8-0.5c1.3-0.3,2.5-0.6,3.7-1.1c6-2.2,11.3-6.2,18.2-7
		c8.5-1.1,17.2,0.3,25,3.9c10.3,4.8,18.4,13.3,26.3,21.6l24.2,25.4c8,8.4,16.1,17,21.5,27.2c9.3,18.1,9.4,39.5,0.3,57.6
		c-4.1,8.1-10,15.2-13.7,23.5c-5.5,12.1-6.2,26.2-12.8,37.8c-6.1,10.6-16.5,18-28.6,20.3c-9.6,1.8-19.3,0.1-29-1.9
		c-7.4-1.6-14.7-3.4-22.2-4.1l-1.3-0.1c-16.6-1.3-33.1,2.8-49.7,4.5c-17,1.8-35.6,0.7-49.1-9.9c-3.1-2.5-5.9-5.3-8.3-8.4
		c-2.2-3-4.3-6.1-6-9.4c-7.1-12.9-11.8-27.9-21.1-39.4c-7-8.7-16.4-15-23.9-23.3C103.7,229.2,97.3,212.8,99,196.7z"/>
	<path class="st5" d="M161.7,318.5c0.6,1.3,3.5,1.5,3.5,1.5c-0.3-2.3,7.5-20.5,10.5-26.3s4.9-6,4.9-6l-3.1-1.2
		C169.6,293.5,161.7,318.5,161.7,318.5z"/>
	
		<linearGradient id="SVGID_2_" gradientUnits="userSpaceOnUse" x1="71.5686" y1="459.5309" x2="85.4272" y2="412.1912" gradientTransform="matrix(-1 0 0 -1 248.931 741.41)">
		<stop  offset="0" style="stop-color:#000000;stop-opacity:0"/>
		<stop  offset="0.97" style="stop-color:#000000"/>
	</linearGradient>
	<path class="st6" d="M161.7,318.5c0.6,1.3,3.5,1.5,3.5,1.5c-0.3-2.3,7.5-20.5,10.5-26.3s4.9-6,4.9-6l-3.1-1.2
		C169.6,293.5,161.7,318.5,161.7,318.5z"/>
	
		<linearGradient id="SVGID_3_" gradientUnits="userSpaceOnUse" x1="-48.4104" y1="527.9785" x2="-32.6142" y2="527.9785" gradientTransform="matrix(-1 0 0 -1 248.931 741.41)">
		<stop  offset="0" style="stop-color:#ECC4D7"/>
		<stop  offset="0.42" style="stop-color:#EFD4D1"/>
		<stop  offset="1" style="stop-color:#F2EAC9"/>
	</linearGradient>
	<path class="st7" d="M284.8,198.3l12.5,12.8c0,0,0.4,16.2-2.5,17.4s-13.3-15.1-13.3-15.1L284.8,198.3z"/>
	<path class="st8" d="M280.6,223.3c0,0,1.2,4.1,5.6,9.8c4.5,5.7,2.8,1,6.1,6.1c2.6,3.9-1.8,9.6-1.8,9.6l4.2,3.6l3.1-5.2
		c1.9-3.2-2.1-14.6-7.2-16.4c-5.1-1.8-9.5-14.9-9.5-14.9L280.6,223.3z"/>
	<path class="st5" d="M292.7,265.4c-3-5.6-6.3-11-9.6-16.4c-2.5-3.9-5-10.1-9.2-12.6c-3-1.8-6.8-1-10.1-0.8
		c-6.1,0.4-13.1-1.7-19-0.2c-2.1,0.5-4,2-4.5,4.1c-0.6,2.3,0.7,4.5,1.9,6.6c6.6,11.6,10.9,24.4,15.2,37l6.4,18.7
		c0.3,1,0.7,1.9,1.4,2.7c1.5,1.4,3.9,1.1,5.9,0.7c8.8-1.8,17.4-4.4,25.7-7.9c1.9-0.8,3.9-1.7,5.1-3.5c1.7-2.7,0.8-6.2-0.3-9.1
		C299,278.1,296.1,271.6,292.7,265.4z"/>
	
		<linearGradient id="SVGID_4_" gradientUnits="userSpaceOnUse" x1="-36.3326" y1="469.2899" x2="27.5113" y2="475.4947" gradientTransform="matrix(-1 0 0 -1 248.931 741.41)">
		<stop  offset="0" style="stop-color:#000000;stop-opacity:0"/>
		<stop  offset="0.97" style="stop-color:#000000"/>
	</linearGradient>
	<path class="st9" d="M240.3,239.6c0.5-2.1,2.5-3.6,4.5-4.1c5.8-1.5,12.9,0.6,19,0.2c3.4-0.2,7.1-1,10.1,0.8
		c4.2,2.5,6.7,8.6,9.2,12.6c3.3,5.4,6.6,10.8,9.6,16.4c3.4,6.2,6.3,12.7,8.8,19.3c0.8,2.2,1.5,4.6,1.1,6.8c-0.1,0.8-0.4,1.6-0.9,2.4
		c-1.1,1.8-3.1,2.7-5.1,3.5c-8.3,3.4-16.9,6.1-25.7,7.9c-1.4,0.4-2.9,0.4-4.4,0.1c-0.6-0.2-1.1-0.5-1.5-0.9
		c-0.7-0.8-1.2-1.7-1.4-2.7l-1.6-4.5c-1.6-4.7-3.2-9.4-4.8-14.2c-4.3-12.6-8.7-25.3-15.2-37C241,244.2,239.7,241.9,240.3,239.6z"/>
	
		<linearGradient id="SVGID_5_" gradientUnits="userSpaceOnUse" x1="-53.662" y1="443.3062" x2="-16.2202" y2="443.3062" gradientTransform="matrix(-1 0 0 -1 248.931 741.41)">
		<stop  offset="0" style="stop-color:#000000;stop-opacity:0"/>
		<stop  offset="0.97" style="stop-color:#000000"/>
	</linearGradient>
	<path class="st10" d="M278.7,295.3c0.8-0.4,1.6-0.9,2.5-1.3c4.4-2.2,9.3-3.3,14.3-3.4c2-0.1,4.1,0.1,6.1,0.4l1.1,0.5
		c-0.1,0.8-0.4,1.6-0.9,2.4c-0.8,1.1-1.9,2-3.1,2.6c-0.6,0.3-1.3,0.6-1.9,0.9c-6,2.5-12.2,4.6-18.5,6.2c-2.4,0.6-4.8,1.2-7.2,1.7
		c-2,0.4-4.4,0.7-5.9-0.7C269.4,301.1,273.9,298,278.7,295.3z"/>
	<path class="st5" d="M265.9,280.1c1.2-13.3,0.5-27.2-0.4-40.5c-0.4-6.3-6.7-5-11.6-4.9c-6.9,0.1-14,0.1-20.3-2.9
		c-0.6-0.4-1.3-0.5-2-0.4c-0.5,0.2-0.9,0.5-1.2,1c-5.3,6.6-7.9,15-7,23.4c0.5,4.4,1.8,8.7,2.8,13c2.3,11,1.7,22.3,1.9,33.5
		c-0.1,0.6,0.1,1.2,0.5,1.7c0.3,0.3,0.7,0.4,1.2,0.5c7.9,1.8,15.9,3.1,23.9,3.9c1.4,0.1,3,0.3,4.2-0.4c1.6-0.8,2.4-2.6,3-4.3
		C263.5,296,265.2,288.1,265.9,280.1z"/>
	
		<linearGradient id="SVGID_6_" gradientUnits="userSpaceOnUse" x1="-18.8258" y1="449.1392" x2="88.4759" y2="559.9921" gradientTransform="matrix(-1 0 0 -1 248.931 741.41)">
		<stop  offset="0" style="stop-color:#000000;stop-opacity:0"/>
		<stop  offset="0.97" style="stop-color:#000000"/>
	</linearGradient>
	<path class="st11" d="M229.3,233.6c0.3-0.5,0.6-0.8,1-1.2c0.3-0.4,0.7-0.8,1.2-1c0.7-0.1,1.4,0.1,2,0.4c6.4,3,13.5,2.9,20.3,2.9
		c4.9-0.1,11.1-1.4,11.6,4.9c0.9,13.3,1.6,27.2,0.4,40.5c-0.6,8-2.4,15.9-5.1,23.5c-0.6,1.7-1.4,3.5-3,4.3c-1.3,0.7-2.8,0.6-4.2,0.4
		c-8.1-0.8-16-2.1-23.9-3.9c-0.4-0.1-0.8-0.2-1.2-0.5c-0.1-0.1-0.1-0.2-0.2-0.2c-0.2-0.5-0.3-1-0.3-1.5c-0.2-11.2,0.4-22.5-1.9-33.5
		c-0.9-4.3-2.3-8.6-2.8-13C222.5,247.8,224.6,239.9,229.3,233.6z"/>
	
		<linearGradient id="SVGID_7_" gradientUnits="userSpaceOnUse" x1="18.831" y1="502.5284" x2="-1.195796e-02" y2="489.0793" gradientTransform="matrix(-1 0 0 -1 248.931 741.41)">
		<stop  offset="0" style="stop-color:#000000;stop-opacity:0"/>
		<stop  offset="0.97" style="stop-color:#000000"/>
	</linearGradient>
	<path class="st12" d="M231.6,233.3l-1.6,17.4c10-0.9,11.6-15.5,11.6-15.5L231.6,233.3z"/>
	
		<linearGradient id="SVGID_8_" gradientUnits="userSpaceOnUse" x1="4.896" y1="440.8203" x2="6.4551" y2="431.1429" gradientTransform="matrix(-1 0 0 -1 248.931 741.41)">
		<stop  offset="0" style="stop-color:#000000;stop-opacity:0"/>
		<stop  offset="0.97" style="stop-color:#000000"/>
	</linearGradient>
	<path class="st13" d="M231.6,301.1c6.7-1,15.9,1,21.7,2.7c3.4,1,5.7,1.8,5.7,1.8c-0.4,3.5-6,2.2-6,2.2s-17.1-3.2-21.1-3.5
		c-0.4,0-0.7-0.1-1-0.1c-2.9-0.5-2.9-2-2.9-2C229.1,301.7,230.3,301.3,231.6,301.1z"/>
	<path class="st8" d="M243,153c1.3,0.2,2.6,0.1,3.8-0.2c4-0.8,8.1-2.1,11.2-4.8c3.1-2.7,5-7.1,3.6-11c-1.7-4.8-7.4-6.8-12.4-7.7
		c-5.8-1.1-12.1-1.6-17.2,1.6c-5.1,3.2-7.5,9.3-9.9,14.7s-5.3,10.6-7.6,16.1c-3.1,7.6-5.3,15.6-6.5,23.7c-0.4,2.8-0.7,5.9,0.4,8.5
		c1.2,2.6,4.3,4.6,7,3.4c2.5-1.1,3.3-4.1,3.8-6.8c3-14.1,7.4-27.8,13.3-40.9c0.3-0.7,0.7-1.4,1.3-1.9c0.7-0.4,1.5-0.7,2.3-0.7
		c4.2-0.3,8.5,0.9,11.8,3.6c0.2,0.2,0.5,0.4,0.4,0.7c0,0.3-0.5,0.4-0.6,0.2"/>
	<path class="st14" d="M256.9,139.2c2.5,0.8,4.7,1.2,4.7,4c0,2.3-2.5,6.1-3.4,8.2l-16.2,39c-2.5,6-5,12.1-8.8,17.3
		c-0.6,1.2-2.1,1.7-3.3,1.1c-4.6-1.2-9.1-2.8-13.4-4.8c-2.4-1.1-4.9-2.6-5.9-5c-1.1-2.6-0.3-5.6,0.5-8.4c5-16,10-32.1,17.4-47.2
		c0.6-1.4,1.5-2.7,2.6-3.9c1.8-1.6,4.4-2.1,6.8-2.4C244.3,136.6,250.7,137.3,256.9,139.2z"/>
	<path class="st5" d="M290.5,156c-2.8,0.8-1.7,8.9-1.8,11.1c-0.6,9.3-1,18.5-1.1,27.8c0,1.2,0,2.6,0.9,3.4c1.4,1.3,3.6,0.3,5.1-0.7
		l7.4-4.7h0.1c1.6-0.6,2.3-2.4,1.7-3.9c-1.7-8.5-4-16.8-7-24.9C295.2,162,293.3,155.2,290.5,156z"/>
	<path class="st5" d="M261.7,145.6c-8.8-1-17.2,5.1-21.5,12.8s-5.4,16.8-6.2,25.6c-1.3,14.8-5.2,31-5.1,45.8c0,1.1,0.8,1.5,1.4,2.5
		c0.9,1.6,5.4,1.6,7.2,2c7.3,1.7,14.7,2.7,22.2,2.9c2.9,0.1,5.8,0.1,8.4-1.1c2-0.9,6.4,1.2,7.9-0.4c4.7-5.1,4.8-15.4,7.2-21.9
		c3.3-9,6.1-18.1,9-27.2c1.4-4.5,2.8-9,3-13.7c0.3-6.1-1.5-12.1-5-17.1c-0.9-1.3-2-2.5-3.2-3.6c-4-3.3-9.4-4-14.5-4.4
		C269.3,147.5,264.9,146,261.7,145.6z"/>
	
		<linearGradient id="SVGID_9_" gradientUnits="userSpaceOnUse" x1="14.6427" y1="552.2726" x2="-38.2719" y2="547.5402" gradientTransform="matrix(-1 0 0 -1 248.931 741.41)">
		<stop  offset="0" style="stop-color:#FFFFFF;stop-opacity:0"/>
		<stop  offset="0.84" style="stop-color:#FFFFFF;stop-opacity:0.84"/>
		<stop  offset="0.97" style="stop-color:#FFFFFF"/>
	</linearGradient>
	<path class="st15" d="M234.1,184c0.8-8.8,1.8-17.9,6.2-25.6c1.4-2.5,3.1-4.7,5.2-6.6c1.8-1.7,3.8-3.1,6-4.2c2.1-1.1,4.5-1.7,6.9-2
		l0,0c1.1-0.1,2.3-0.1,3.4,0c3.1,0.4,7.5,1.9,10.7,2.2c2.8,0.2,5.5,0.6,8.2,1.3c2.3,0.6,4.4,1.7,6.3,3.1c1.2,1,2.3,2.2,3.2,3.6
		c3.5,5,5.3,11,5,17.1c-0.2,4.7-1.6,9.2-3,13.7c-2.9,9.1-5.7,18.3-9,27.2c-2.4,6.6-2.5,16.8-7.2,21.9c-1.5,1.6-13.5,1.5-16.3,1.5
		c-7.5-0.2-14.9-1.2-22.2-2.9c-0.2,0-0.5-0.1-0.8-0.1l0,0c-1.7-0.1-3.4-0.4-5-0.9c-0.6-0.2-1-0.5-1.4-1c-0.6-1-1.4-1.4-1.4-2.5
		C228.8,215,232.7,198.8,234.1,184z"/>
	
		<linearGradient id="SVGID_10_" gradientUnits="userSpaceOnUse" x1="15.4574" y1="592.1499" x2="-171.2427" y2="249.7589" gradientTransform="matrix(-1 0 0 -1 248.931 741.41)">
		<stop  offset="0" style="stop-color:#000000;stop-opacity:0"/>
		<stop  offset="0.97" style="stop-color:#000000"/>
	</linearGradient>
	<path class="st16" d="M234,184c0.8-8.8,1.8-17.9,6.2-25.6c1.4-2.5,3.1-4.7,5.2-6.6l2.6-1.2l3.5-3l2.4-1.9h4.5l0,0h3.4l14.3-0.8
		l4.6,4.3l3.9,4.2l2.2,22.7c0,0-6.4-20.5-8.7-20.7c0,0-8.1,5.2-10.8,5.2c-2.7,0-8,7.6-8,7.6l-18.4,13.4l-3.4,52.9l-0.8-0.1l0,0
		l-5-0.9c-0.6-0.2-1-0.5-1.4-1c-0.6-1-1.4-1.4-1.4-2.5C228.8,215,232.7,198.8,234,184z"/>
	<path class="st8" d="M232.9,215.9c-6.7,0-14.6-12.9-14.6-12.9l2.5-2c3.4,6.9,12.5,11.6,12.5,11.6S239.6,215.9,232.9,215.9z"/>
	<path class="st14" d="M257.7,143c-1-0.3-9.8,2.1-9.8,2.4c0.9,4.5,4.3,8.2,6.4,12.3c4.3,8.2,3.8,18.1,2,27.2
		c-1,5.4-2.5,10.8-5.7,15.2c-4.2,5.9-10.9,9.3-17.3,12.6c-0.6,0.2-1,0.6-1.3,1.1c-0.6,1.2,0.9,2.4,2.2,2.8c3.8,1.1,8,0.4,11.6-1.4
		c3.6-1.8,6.6-4.4,9.5-7.2c6.5-6.2,12.5-13.4,14.7-22.2c3-11.9-0.4-24.9-6.8-35.4C261.8,148,260.4,143.7,257.7,143z"/>
	<path class="st14" d="M286.9,148.9c-5-3.3-8.9-1.5-8.8-0.4c0.1,2.3,9.5,10.7,8.8,36.6c-0.4,13.3-4.6,29.1-4.4,30.7
		c10.5-3.5,16.5-36,13.4-51.4C294.6,158.3,292.2,152.5,286.9,148.9z"/>
	
		<linearGradient id="SVGID_11_" gradientUnits="userSpaceOnUse" x1="-27.0598" y1="548.9795" x2="8.1034" y2="548.9795" gradientTransform="matrix(-1 0 0 -1 248.931 741.41)">
		<stop  offset="0" style="stop-color:#ECC4D7"/>
		<stop  offset="0.42" style="stop-color:#EFD4D1"/>
		<stop  offset="1" style="stop-color:#F2EAC9"/>
	</linearGradient>
	<path class="st17" d="M266.1,163.9c2.9-1,5.5-0.3,7.1,2.3c1.8,2.7,2.1,6.8,2.5,9.9c0.2,1.9,0.5,4-0.1,5.8c-0.2,0.5-2.7,3.6-2.7,3.3
		c0.5,6.2,0.5,12.3-0.1,18.5c-0.6,5.5-1.7,11.3-5.4,15.3s-7.7,2.6-11.7-1.3c-2.3-2.3-13.4-19.9-14.9-27.4c-0.2-1.2,3.1-3.3,3.2-4.6
		c0.4-2.2,1.8-4.1,3.8-5.2c1.9-1.1,4-1.8,6.2-2.3c0.9,9.8,2,20.3,8,28.1c0.4-10.8,0.1-21.7-0.9-32.4
		C260.7,169.6,261.6,165.4,266.1,163.9z"/>
	
		<linearGradient id="SVGID_12_" gradientUnits="userSpaceOnUse" x1="-54.8468" y1="542.9398" x2="-36.6496" y2="542.9398" gradientTransform="matrix(-1 0 0 -1 248.931 741.41)">
		<stop  offset="0" style="stop-color:#ECC4D7"/>
		<stop  offset="0.42" style="stop-color:#EFD4D1"/>
		<stop  offset="1" style="stop-color:#F2EAC9"/>
	</linearGradient>
	<path class="st18" d="M303.1,201c0.7,4.6,0.9,9.2,0.4,13.9s-2.3,9.4-5.8,12.5c-0.7,0.8-1.8,1.2-2.9,1.2c-1.7-0.3-2.3-2.4-2.5-4.1
		c-1-9.4,0.5-18.9-0.2-28.3c0-1-0.3-2-0.7-2.9c-0.6-0.8-1.4-1.5-2.2-2.1c-2.2-1.9-3.3-4.9-3.5-7.9c-0.1-3,0.1-5.9,0.8-8.8
		c0.4-2,0.8-4.2,2.5-5.4c2.2-1.6,5.6-0.5,7.3,1.7c1.7,2.2,2.1,5.1,2.5,7.9C299.9,187.4,301.9,192,303.1,201"/>
	
		<linearGradient id="SVGID_13_" gradientUnits="userSpaceOnUse" x1="-4.3564" y1="422.2834" x2="66.4811" y2="422.2834" gradientTransform="matrix(-1 0 0 -1 248.931 741.41)">
		<stop  offset="0" style="stop-color:#ECC4D7"/>
		<stop  offset="0.42" style="stop-color:#EFD4D1"/>
		<stop  offset="1" style="stop-color:#F2EAC9"/>
	</linearGradient>
	<path class="st19" d="M182.9,305.2c1.5-2.7,3-5.4,4.5-8.1c0.3-0.6,0.8-1.3,1.5-1.4c0.6,0,1.2,0.2,1.7,0.6
		c10.6,7.4,22,13.7,33.9,18.8c0.8,0.3,1.7,0.6,2.4,0.2c0.5-0.4,0.8-0.9,1-1.4c0.6-1.5,1.2-3.1,1.6-4.6l0,0c0.5-1.6,1-3.3,1.4-4.9
		c0.2-0.7,0.4-1.4,0.5-2.1c0-0.1,0.1-0.2,0.1-0.3l0.2-0.7c6.7-1,15.9,1,21.7,2.7c0,0.8,0,1.5-0.1,2.3l0,0c-0.1,0.5-0.2,1.1-0.3,1.7
		c-2.1,11-11.7,33.3-14.4,34.2c-2.2,0.8-4.7,0.1-6.9-0.7c-18.6-6.7-34.1-20-48.3-33.7c-0.4-0.3-0.7-0.8-0.8-1.3
		C182.5,305.9,182.6,305.5,182.9,305.2z"/>
	
		<linearGradient id="SVGID_14_" gradientUnits="userSpaceOnUse" x1="-61.9377" y1="408.01" x2="-25.7794" y2="408.01" gradientTransform="matrix(-1 0 0 -1 248.931 741.41)">
		<stop  offset="0" style="stop-color:#ECC4D7"/>
		<stop  offset="0.42" style="stop-color:#EFD4D1"/>
		<stop  offset="1" style="stop-color:#F2EAC9"/>
	</linearGradient>
	<path class="st20" d="M278.7,295.4c0.8-0.4,1.6-0.9,2.5-1.3c4.4-2.2,9.3-3.3,14.3-3.4c0.3,0.4,0.6,0.8,0.8,1.3l0,0
		c0.8,1.5,1.6,3,2.3,4.6c1,2.3,1.8,4.6,2.4,5.8c3.9,9.3,5.9,19.3,7.4,29.3c1.6,11.9,2.5,24,2.6,36c0,1.2,0,2.6-0.8,3.5
		c-0.5,0.6-1.2,1.1-2,1.4c-3.3,1.6-6.7,2.7-10.3,3.5c-1.1-7.9-2.4-15.8-3.9-23.6c-1.8-9.2-3.8-18.3-6.1-27.4
		c-0.9-4-2.2-7.8-3.9-11.5c-1.8-3.4-4.2-6.5-5.7-9.9c-0.5-1.1-3.2-4.7-3.5-6C274.7,297.7,278.1,295.8,278.7,295.4z"/>
	<path class="st5" d="M190.9,297.1c-1.1,2.6-3.1,4.6-3.6,7.5c-0.1,0.6,0.2,8,1.1,7.3l-9.6,6.3c-3.4,2.3-7.5,4.7-11.5,3.6
		c-0.7-0.1-1.3-0.5-1.8-1.1c-0.7-1-0.4-2.4,0-3.6c3.3-10.2,7.7-20,13.3-29.1c0.2-0.3,0.4-0.6,0.8-0.7c0.4-0.1,0.7,0,1,0.2
		C184.5,289.7,193.2,291.7,190.9,297.1z"/>
	<path class="st5" d="M314.5,371.3c1.5,1.6,2.3,3.5,3.6,5.1c3.7,4.8,8.3,7.6,10.6,13.6c0.8,2.1,1,5.1-1.1,6
		c-0.6,0.2-1.3,0.3-1.9,0.2c-10.5-0.3-21.4-0.6-30.9-5.1c-1-0.4-1.8-1-2.4-1.9c-0.3-0.9-0.4-1.9-0.1-2.9c0.8-5,2.1-10,3.8-14.8
		c3.8,1.3,8.4,2.5,11.5,0C310.5,369.2,311.7,368.3,314.5,371.3z"/>
	
		<linearGradient id="SVGID_15_" gradientUnits="userSpaceOnUse" x1="72.3214" y1="425.3611" x2="60.3527" y2="489.213" gradientTransform="matrix(-1 0 0 -1 248.931 741.41)">
		<stop  offset="0" style="stop-color:#000000;stop-opacity:0"/>
		<stop  offset="0.97" style="stop-color:#000000"/>
	</linearGradient>
	<path class="st21" d="M190.9,297.1c-1.1,2.6-3.1,4.6-3.6,7.5c-0.1,0.6,0.2,8,1.1,7.3l-9.6,6.3c-3.4,2.3-7.5,4.7-11.5,3.6
		c-0.7-0.1-1.3-0.5-1.8-1.1c-0.7-1-0.4-2.4,0-3.6c3.3-10.2,7.7-20,13.3-29.1c0.2-0.3,0.4-0.6,0.8-0.7c0.4-0.1,0.7,0,1,0.2
		C184.5,289.7,193.2,291.7,190.9,297.1z"/>
	
		<linearGradient id="SVGID_16_" gradientUnits="userSpaceOnUse" x1="-65.7844" y1="359.7961" x2="-38.957" y2="339.6224" gradientTransform="matrix(-1 0 0 -1 248.931 741.41)">
		<stop  offset="0" style="stop-color:#000000;stop-opacity:0"/>
		<stop  offset="0.97" style="stop-color:#000000"/>
	</linearGradient>
	<path class="st22" d="M292.4,386.2c0-0.3,0.1-0.6,0.1-0.8c0.8-4.7,2-9.4,3.6-13.9c3.8,1.3,8.4,2.5,11.5,0c2.8-2.3,4-3.1,6.8-0.1
		c1.5,1.6,2.3,3.5,3.6,5.1c3.7,4.8,8.3,7.6,10.6,13.6c0.2,0.6,0.4,1.3,0.5,1.9c0.3,1.7-0.1,3.4-1.6,4c-0.6,0.2-1.3,0.3-1.9,0.2
		c-10.5-0.3-21.4-0.6-30.9-5.1c-1-0.4-1.8-1-2.4-1.9C292.1,388.2,292.1,387.2,292.4,386.2z"/>
	<path class="st5" d="M335.5,101.1c0.7-1.1,1.6-2.2,2.8-2.5c0.1,0,0.2,0,0.3-0.1c1.2-0.1,2.4,0.5,3.4,1.1
		c12.6,7.1,27.3,13.2,38.7,21.9c-6,17-20.9,28.5-28.3,44.7c-0.4,1-0.9,2-1.9,2.4c-1,0.3-2.2,0.1-3.1-0.5l-0.6-0.4
		c-12.2-7.7-23.7-16.3-34.5-25.9C319.1,127.7,326.8,114.1,335.5,101.1z"/>
	
		<linearGradient id="SVGID_17_" gradientUnits="userSpaceOnUse" x1="-59.4595" y1="625.1642" x2="-147.0127" y2="582.2261" gradientTransform="matrix(-1 0 0 -1 248.931 741.41)">
		<stop  offset="0" style="stop-color:#FFFFFF;stop-opacity:0"/>
		<stop  offset="0.84" style="stop-color:#FFFFFF;stop-opacity:0.84"/>
		<stop  offset="0.97" style="stop-color:#FFFFFF"/>
	</linearGradient>
	<path class="st23" d="M335.5,101.1c0.7-1.1,1.6-2.2,2.8-2.5c0.1,0,0.2,0,0.3-0.1c0.3,0.1,0.5,0.3,0.8,0.4
		c12.6,7,27.3,13.2,38.7,21.9c-6,16.9-20.8,28.5-28.3,44.7c-0.4,1-0.9,2-1.9,2.4c-0.1,0.1-0.3,0.1-0.4,0.1l-0.6-0.4
		c-12.2-7.7-23.7-16.3-34.5-25.9C319.1,127.7,326.8,114.1,335.5,101.1z"/>
	<path class="st5" d="M400.2,270.7c-1.2,1.6-7.9,12.2-10.3,10.8c-0.5-0.4-0.7-1.2-0.3-1.8c0.3-0.5,12.3-16.9,17.8-22.5
		c0.2-0.2,0.4-0.2,0.7-0.1c0.3,0.1,0.4,0.5,0.2,0.8C405.8,262.4,403.2,266.6,400.2,270.7z"/>
	<path class="st5" d="M372.4,259.2c-0.6,0.7-2.5,3.8-3.8,3.6c-2.1-0.3-4-1.3,14.4-19.8c2.7-2.7,3.6-2.3,3.2-1.6
		C384.9,243.7,375.4,255.5,372.4,259.2z"/>
	
		<linearGradient id="SVGID_18_" gradientUnits="userSpaceOnUse" x1="-150.8259" y1="471.5666" x2="-147.503" y2="474.0076" gradientTransform="matrix(-1 0 0 -1 248.931 741.41)">
		<stop  offset="0" style="stop-color:#000000;stop-opacity:0"/>
		<stop  offset="0.97" style="stop-color:#000000"/>
	</linearGradient>
	<path class="st24" d="M400.2,270.7c-1.2,1.6-7.9,12.2-10.3,10.8c-0.5-0.4-0.7-1.2-0.3-1.8c0.3-0.5,12.3-16.9,17.8-22.5
		c0.2-0.2,0.4-0.2,0.7-0.1c0.3,0.1,0.4,0.5,0.2,0.8C405.8,262.4,403.2,266.6,400.2,270.7z"/>
	
		<linearGradient id="SVGID_19_" gradientUnits="userSpaceOnUse" x1="-128.3651" y1="489.4086" x2="-125.554" y2="491.5504" gradientTransform="matrix(-1 0 0 -1 248.931 741.41)">
		<stop  offset="0" style="stop-color:#000000;stop-opacity:0"/>
		<stop  offset="0.97" style="stop-color:#000000"/>
	</linearGradient>
	<path class="st25" d="M372.4,259.2c-0.6,0.7-2.5,3.8-3.8,3.6c-2.1-0.3-4-1.3,14.4-19.8c2.7-2.7,3.6-2.3,3.2-1.6
		C384.9,243.7,375.4,255.5,372.4,259.2z"/>
	<path class="st5" d="M349.3,260.6c0.1-0.1,0.1-0.2,0.2-0.3c0.2-0.3,0.5-0.5,0.8-0.7c0.6-0.2,1.3-0.3,1.9-0.2l12.4,1.3
		c1.1,0.1,2.2,0.3,3.2,0.7c1.2,0.7,2.2,1.5,3,2.6c4.6,5.1,9.7,9.7,15.3,13.6c2.3,1.6,6.8,4.1,6.1,7.2c0,0.2-0.1,0.3-0.1,0.5
		c-1.1,3-5.1,5.4-8,6.3c-3.7,1.1-7.7,0.6-11-1.4c-1.9-1.3-3.7-2.8-5.3-4.4c-3.4-3.1-7-6-10.7-8.6c-2.8-2-5.6-4.1-7.4-7
		C347.9,267.4,347.3,263.4,349.3,260.6z"/>
	
		<linearGradient id="SVGID_20_" gradientUnits="userSpaceOnUse" x1="-127.8268" y1="475.2288" x2="-104.3302" y2="447.9604" gradientTransform="matrix(-1 0 0 -1 248.931 741.41)">
		<stop  offset="0" style="stop-color:#000000;stop-opacity:0"/>
		<stop  offset="0.97" style="stop-color:#000000"/>
	</linearGradient>
	<path class="st26" d="M349.3,260.6c0.1-0.1,0.1-0.2,0.2-0.3c0.2-0.3,0.5-0.5,0.8-0.7c0.6-0.2,1.3-0.3,1.9-0.2l12.4,1.3
		c1.1,0.1,2.2,0.3,3.2,0.7c1.2,0.7,2.2,1.5,3,2.6c4.6,5.1,9.7,9.7,15.3,13.6c2.3,1.6,6.8,4.1,6.1,7.2c0,0.2-0.1,0.3-0.1,0.5
		c-1.1,3-5.1,5.4-8,6.3c-3.7,1.1-7.7,0.6-11-1.4c-1.9-1.3-3.7-2.8-5.3-4.4c-3.4-3.1-7-6-10.7-8.6c-2.8-2-5.6-4.1-7.4-7
		C347.9,267.4,347.3,263.4,349.3,260.6z"/>
	<path class="st5" d="M350.3,259.7c0.6-0.2,1.3-0.3,1.9-0.2l12.4,1.3c1.1,0.1,2.2,0.3,3.2,0.7c1.2,0.7,2.2,1.6,3,2.6
		c4.6,5.1,9.7,9.7,15.3,13.6c2.3,1.6,6.8,4.1,6.1,7.2c-7.9-0.4-15.8-1.4-22.3-5.7c-2.4-1.7-4.7-3.6-6.7-5.7
		c-4.2-4.2-8.7-8.3-13-12.5c-0.2-0.2-0.5-0.4-0.8-0.7C349.7,260.1,350,259.8,350.3,259.7z"/>
	
		<linearGradient id="SVGID_21_" gradientUnits="userSpaceOnUse" x1="-27.9079" y1="628.5317" x2="-3.0806" y2="596.8224" gradientTransform="matrix(-1 0 0 -1 248.931 741.41)">
		<stop  offset="0" style="stop-color:#ECC4D7"/>
		<stop  offset="0.42" style="stop-color:#EFD4D1"/>
		<stop  offset="1" style="stop-color:#F2EAC9"/>
	</linearGradient>
	<path class="st27" d="M251.5,119.7c0.2-4.6,0-12,2.4-16.1c3-5.1,9.6-6,15-5.7c3,0.2,6.1,0.6,8.7,2.3c1.5,1,2.9,2.4,3.8,3.9
		c2.4,3.7,3.3,8.3,3.1,12.8c-0.1,4.4-1.1,8.8-2.1,13.2c-1.1,4.7-2.1,9.5-3.2,14.2s-2.8,10.1-7.3,11.5c-0.3,0.1-0.6,0.2-1,0.2
		c-2.8,0.3-6.5-1.9-8.3-8.2c-0.2-0.8,0-3.6-0.9-5.2c-0.6-0.9-1.4-1.7-2.3-2.3c-1.6-1.2-3.4-2.2-4.4-3.1
		C251.7,134,251.3,124.2,251.5,119.7z"/>
	<path class="st14" d="M258.8,85c1.9-0.3,2.9,1.1,4.7,1.7c2.3,0.7,5,0.6,7.4,0.7c3.5,0.2,7.2,0.6,10.1,2.5s4.9,5.8,3.5,9
		c2.7,1.1,4.5,3.7,5.2,6.6c0.7,2.8,0.5,5.8,0.1,8.7c-0.6,5.5-1.6,11-3.8,16.1c-1.3,3.2-3.3,6.4-6.5,7.9l-1.1-5c-0.2-0.6-0.2-1.3,0-2
		c0.3-0.5,0.8-0.9,1.4-1.2c2-1.5,3-3.9,2.7-6.4c-0.1-0.8-0.7-1.7-1.4-1.5c-0.3,0.1-0.6,0.3-0.8,0.6l-2.3,2.9l0.4-11.7
		c0.1-2.1,0.1-4.4-0.9-6.3c-1.3-2.5-4.2-3.9-7-4.5s-5.7-0.6-8.5-1.4c-3.8-1.1-7.2-3.9-8.2-7.7C253.1,90.9,254.9,85.7,258.8,85z"/>
	<path class="st5" d="M252.8,155.3c-2.6-6.9-11.6-1.7-13.9,3.1c-1.3,2.8-1.5,6-1.5,9.1c0,5.8,0.1,35.6,3.5,33.3
		c3.7-2.4,11.6-5.6,15.9-6.7C257.8,193.8,255.7,163.1,252.8,155.3z"/>
	
		<linearGradient id="SVGID_22_" gradientUnits="userSpaceOnUse" x1="8.3255" y1="564.786" x2="-5.6433" y2="565.4474" gradientTransform="matrix(-1 0 0 -1 248.931 741.41)">
		<stop  offset="0" style="stop-color:#FFFFFF;stop-opacity:0"/>
		<stop  offset="0.84" style="stop-color:#FFFFFF;stop-opacity:0.84"/>
		<stop  offset="0.97" style="stop-color:#FFFFFF"/>
	</linearGradient>
	<path class="st28" d="M252.8,155.3c-2.6-6.9-11.6-1.7-13.9,3.1c-1.3,2.8-1.5,6-1.5,9.1c0,5.8,0.1,35.6,3.5,33.3
		c3.7-2.4,11.6-5.6,15.9-6.7C257.8,193.8,255.7,163.1,252.8,155.3z"/>
	<path class="st8" d="M232,213.8c0,0-4.2,4-4.2,9.1s1.9,5.2,5.2,10.2s-0.2,12.5-0.2,12.5h5.4c0,0,4.9-12.5-3.3-17.5
		c-8.2-4.9-0.7-11.6-0.7-11.6L232,213.8z"/>
	
		<linearGradient id="SVGID_23_" gradientUnits="userSpaceOnUse" x1="-12.6581" y1="589.0053" x2="58.8789" y2="513.3265" gradientTransform="matrix(-1 0 0 -1 248.931 741.41)">
		<stop  offset="0" style="stop-color:#ECC4D7"/>
		<stop  offset="0.42" style="stop-color:#EFD4D1"/>
		<stop  offset="1" style="stop-color:#F2EAC9"/>
	</linearGradient>
	<path class="st29" d="M259.6,140.2c0,0,2.4,2.1,7.2,0.9c4.7-1.3,5.2,14.6,5.2,14.6l-1,0.2c-2.8,0.3-6.5-1.9-8.3-8.2
		c-0.2-0.8,0-3.6-0.9-5.2C261.2,141.6,260.4,140.9,259.6,140.2L259.6,140.2z"/>
	
		<linearGradient id="SVGID_24_" gradientUnits="userSpaceOnUse" x1="30.296" y1="481.0725" x2="-35.2724" y2="434.2683" gradientTransform="matrix(-1 0 0 -1 248.931 741.41)">
		<stop  offset="0" style="stop-color:#000000;stop-opacity:0"/>
		<stop  offset="0.97" style="stop-color:#000000"/>
	</linearGradient>
	<path class="st30" d="M229.3,233.6l2.4-0.3l-1.6,17.4c0,0-1.1,13.7,1.9,21.5c3,7.8,1.8,28.7,1.8,28.7l-5.5,2.7
		c-0.2-0.5-0.3-1-0.3-1.5c-0.2-11.2,0.4-22.5-1.9-33.5c-0.9-4.3-2.3-8.6-2.8-13C222.4,247.8,224.6,239.9,229.3,233.6z"/>
	
		<linearGradient id="SVGID_25_" gradientUnits="userSpaceOnUse" x1="-29.6025" y1="456.426" x2="40.903" y2="426.8663" gradientTransform="matrix(-1 0 0 -1 248.931 741.41)">
		<stop  offset="0" style="stop-color:#000000;stop-opacity:0"/>
		<stop  offset="0.97" style="stop-color:#000000"/>
	</linearGradient>
	<path class="st31" d="M266.2,274.7l10.7,21.7l-10.2,9c-0.6-0.2-1.1-0.5-1.5-0.9c-0.7-0.8-1.2-1.7-1.4-2.7l-1.6-4.5L266.2,274.7z"/>
	
		<linearGradient id="SVGID_26_" gradientUnits="userSpaceOnUse" x1="-67.082" y1="430.068" x2="59.1728" y2="377.1298" gradientTransform="matrix(-1 0 0 -1 248.931 741.41)">
		<stop  offset="0" style="stop-color:#000000;stop-opacity:0"/>
		<stop  offset="0.97" style="stop-color:#000000"/>
	</linearGradient>
	<path class="st32" d="M278.8,295.4c0.8-0.4,1.6-0.9,2.5-1.3c4.4-2.2,9.3-3.3,14.3-3.4c0.3,0.4,0.6,0.8,0.8,1.3l0,0
		c0,0-8.5-0.4-12.4,3c-3.9,3.3-1.6,9.5-1.6,9.5s6.6,7.1,7.6,14.5c0.6,4.2,2.5,20.1,4.1,33.4c-1.8-9.2-3.8-18.3-6.1-27.4
		c-0.9-4-2.2-7.8-3.9-11.5c-1.8-3.4-4.2-6.5-5.7-9.9c-0.5-1.1-3.2-4.7-3.5-6C274.7,297.7,278.1,295.8,278.8,295.4z"/>
	
		<linearGradient id="SVGID_27_" gradientUnits="userSpaceOnUse" x1="-3.398" y1="425.0158" x2="83.0685" y2="502.9388" gradientTransform="matrix(-1 0 0 -1 248.931 741.41)">
		<stop  offset="0" style="stop-color:#000000;stop-opacity:0"/>
		<stop  offset="0.97" style="stop-color:#000000"/>
	</linearGradient>
	<path class="st33" d="M231.4,301.8l0.2-0.7c6.7-1,15.9,1,21.7,2.7c0,0.8,0,1.5-0.1,2.3l0,0c0,0-13.5-3.1-17.4-2.4l-6.4,5.5l0,0
		L231.4,301.8z"/>
	<path class="st5" d="M86.2,192C86.2,192.2,86.1,192.2,86.2,192z M76,192.6c-0.1,0.8,0.6,1.4,1.3,1.9l38.1,28.9
		c1,0.8,2.1,1.6,3.4,1.5c1-0.2,2-0.6,2.7-1.3c15.8-11.6,37.3-28.6,53.1-40.2c3.9-2.8,3.2-5.4,1.4-6.9l-0.3-0.3
		c-7.6-6-34.6-21.8-34.6-21.8c-0.6-0.6-1.3-1.2-2.1-1.6c0.8-5.8-1.3-34.5-6.3-44.5c-1.2-2.5-2.7-3.9-4.3-3.3
		c-1.9,0.7-34.3,17.7-51.6,29.8c-5.3,3.7-9.3,8.8-8.8,15.2C69.2,166.5,76.1,192,76,192.6z"/>
	
		<linearGradient id="SVGID_28_" gradientUnits="userSpaceOnUse" x1="211.2671" y1="595.8966" x2="-2.903" y2="552.88" gradientTransform="matrix(-1 0 0 -1 248.931 741.41)">
		<stop  offset="0" style="stop-color:#FFFFFF;stop-opacity:0"/>
		<stop  offset="0.84" style="stop-color:#FFFFFF;stop-opacity:0.84"/>
		<stop  offset="0.97" style="stop-color:#FFFFFF"/>
	</linearGradient>
	<path class="st34" d="M80.5,187.7c0.1,0.1,0.3,0.2,0.4,0.2c-0.5,0.3-0.9,0.7-1,1.3c-0.1,0.8,0.6,1.4,1.2,1.8l36,27.3
		c0.9,0.7,2,1.5,3.1,1.4c1-0.2,1.8-0.6,2.6-1.2c14.9-10.9,35.2-27,50.2-37.9c2.1-1.6,2.8-3,2.7-4.3c-7.6-6-34.6-21.8-34.6-21.8
		c-0.6-0.6-1.3-1.2-2.1-1.6c0.8-5.8-1.3-34.5-6.3-44.5c-1-1.5-2.1-2.3-3.3-1.9c-1.8,0.6-32.4,16.8-48.7,28.1
		c-5,3.5-8.8,8.3-8.3,14.4C73.4,164.6,79,186.7,80.5,187.7z M89.5,188.7C89.5,188.8,89.4,188.8,89.5,188.7z"/>
	
		<linearGradient id="SVGID_29_" gradientUnits="userSpaceOnUse" x1="140.3812" y1="635.5027" x2="35.56" y2="614.4471" gradientTransform="matrix(-1 0 0 -1 208.301 799)">
		<stop  offset="0" style="stop-color:#FFFFFF;stop-opacity:0"/>
		<stop  offset="0.84" style="stop-color:#FFFFFF;stop-opacity:0.84"/>
		<stop  offset="0.97" style="stop-color:#FFFFFF"/>
	</linearGradient>
	<polygon class="st35" points="140.5,154 81,191 79.8,189.2 139,152.9 	"/>
	<path class="st5" d="M136.3,150.8l-52.8,33c-4-12.1-6.1-40.5-6.1-40.5l52.2-31.8L136.3,150.8z"/>
	
		<linearGradient id="SVGID_30_" gradientUnits="userSpaceOnUse" x1="177.9549" y1="619.7864" x2="-45.0815" y2="456.6095" gradientTransform="matrix(-1 0 0 -1 248.931 741.41)">
		<stop  offset="0" style="stop-color:#000000;stop-opacity:0"/>
		<stop  offset="0.97" style="stop-color:#000000"/>
	</linearGradient>
	<path class="st36" d="M136.3,150.8l-52.8,33c-4-12.1-6.1-40.5-6.1-40.5l52.2-31.8L136.3,150.8z"/>
	
		<linearGradient id="SVGID_31_" gradientUnits="userSpaceOnUse" x1="114.3865" y1="641.49" x2="-69.4444" y2="506.991" gradientTransform="matrix(-1 0 0 -1 208.301 799)">
		<stop  offset="0" style="stop-color:#000000;stop-opacity:0"/>
		<stop  offset="0.97" style="stop-color:#000000"/>
	</linearGradient>
	<polygon class="st37" points="109.1,202.2 89.5,188.7 139.3,158.5 156.8,169.1 	"/>
	
		<linearGradient id="SVGID_32_" gradientUnits="userSpaceOnUse" x1="87.9835" y1="612.1861" x2="34.0846" y2="601.359" gradientTransform="matrix(-1 0 0 -1 208.301 799)">
		<stop  offset="0" style="stop-color:#FFFFFF;stop-opacity:0"/>
		<stop  offset="0.84" style="stop-color:#FFFFFF;stop-opacity:0.84"/>
		<stop  offset="0.97" style="stop-color:#FFFFFF"/>
	</linearGradient>
	<polygon class="st38" points="156.2,188.8 139.1,201.5 127.7,193.7 146.2,181.1 	"/>
	
		<linearGradient id="SVGID_33_" gradientUnits="userSpaceOnUse" x1="-124.9498" y1="483.6247" x2="-133.5247" y2="445.4978" gradientTransform="matrix(-1 0 0 -1 248.931 741.41)">
		<stop  offset="0" style="stop-color:#FFFFFF;stop-opacity:0"/>
		<stop  offset="0.84" style="stop-color:#FFFFFF;stop-opacity:0.84"/>
		<stop  offset="0.97" style="stop-color:#FFFFFF"/>
	</linearGradient>
	<path class="st39" d="M379.3,273.5c-5.4-4.7-10.7-10.6-12-11.2c-1.1-0.4-2.3-0.5-3.5-0.3l3.1,12.9c2.2,1.9,4.6,3.7,7.2,5.1
		c4.4,2.5,16.5,3.2,16.5,3.2C390.5,280.7,383.8,277.4,379.3,273.5z"/>
	<path class="st5" d="M292.4,386.3c0-0.3,0.1-0.6,0.1-0.8l0.3-0.8c0,0,2.5,1.6,9.4,4.6c6.7,2.9,25.7,2.7,27,2.7
		c0.3,1.7-0.1,3.4-1.6,4c-0.6,0.2-1.3,0.3-1.9,0.2c-10.5-0.3-21.4-0.6-30.9-5.1c-1-0.4-1.8-1-2.4-1.9
		C292.2,388.2,292.1,387.2,292.4,386.3z"/>
	
		<linearGradient id="SVGID_34_" gradientUnits="userSpaceOnUse" x1="-63.947" y1="361.4252" x2="-59.3642" y2="339.4011" gradientTransform="matrix(-1 0 0 -1 248.931 741.41)">
		<stop  offset="0" style="stop-color:#000000;stop-opacity:0"/>
		<stop  offset="0.97" style="stop-color:#000000"/>
	</linearGradient>
	<path class="st40" d="M292.4,386.3c0-0.3,0.1-0.6,0.1-0.8l0.3-0.8c0,0,2.5,1.6,9.4,4.6c6.7,2.9,25.7,2.7,27,2.7
		c0.3,1.7-0.1,3.4-1.6,4c-0.6,0.2-1.3,0.3-1.9,0.2c-10.5-0.3-21.4-0.6-30.9-5.1c-1-0.4-1.8-1-2.4-1.9
		C292.2,388.2,292.1,387.2,292.4,386.3z"/>
</g>
<linearGradient id="SVGID_35_" gradientUnits="userSpaceOnUse" x1="801.6332" y1="274.8257" x2="804.98" y2="177.181" gradientTransform="matrix(1 0 0 -1 296.63 771.68)">
	<stop  offset="0" style="stop-color:#000000;stop-opacity:0"/>
	<stop  offset="0.91" style="stop-color:#000000;stop-opacity:0.8"/>
	<stop  offset="1" style="stop-color:#000000"/>
</linearGradient>
<path class="st41" d="M1133,511.9c2.2,0.4,4.2,1.3,6.3,2.1c18.3,6.8,38.8,1.8,58.2,3.9c-2.3,5.1-9.2,5.7-14.8,5.6
	c-12.5-0.3-24.9-0.2-37.4,0.2c-1.1,0-2.4,0.1-3.2,0.8c-1.7,1.4-1,4.1-1.6,6.1c-1.1,3.5-5.6,4.5-9.3,4.4c-11.6-0.2-23.2-4.1-34.6-1.6
	c-8.9,1.9-17,7.7-26.1,7.2c-5.3-0.3-10.3-2.8-15.6-3.7c-12.2-1.9-24.2,5-36.5,4.2c-4.4-0.3-8.6-1.6-12.7-3.1
	c-2.6-0.9-5.8-3.3-4.5-5.7c0.5-1,1.7-1.6,2.9-1.9c14.7-4.7,30.9,2.7,46.1-0.4c1.3-0.2,2.6-0.7,3.7-1.6c0.8-0.8,1.3-1.8,2.1-2.7
	c2.4-2.9,6.7-3,10.4-3l23.8,0.3c1.9,0,3.9,0,5.7-0.6c2-0.7,3.5-2.2,5.2-3.4c4.6-3.4,9.7-4.9,15.2-5.3
	C1121.8,513.3,1127.5,510.8,1133,511.9z"/>
<g>
	<path class="st42" d="M1135.9,771.2c0,0,22.9-43.7,8.6-65.8s-22.3-37.1-20.5-51.2c1.8-14.1,3.4-51.7-29.2-58.1s-19.6-21-28.9-24.9
		c-9.3-3.9-35.1-11.1-41.4,21.8c-6.4,32.8-11.7,86.6-47.6,99.4s-11.5,92.2-11.5,92.2S1107.5,815.7,1135.9,771.2z"/>
	<path class="st43" d="M1023.3,319.8c10.2-0.4,20-4.1,30.1-6.1c10-2,21.3-2,29.6,3.9c0.3,0.2,0.6,0.4,0.9,0.5
		c1.3,0.3,2.2-1.3,2.9-2.5c2.8-4.7,9.3-5.2,14.7-5.2c11.2,0.1,22.5,0.1,33.3-3c11-3.1,21.1-9.4,32.5-10.6c9.1-1,18.2,1.5,27.1,3.9
		c9.5,2.6,20.1,1.4,29.5-1.4c3.8-1.1,7.5-2.5,11.5-2.8c5.7-0.4,11.5,1.7,16.2,4.9c12.1,8.1,18.4,26.4,9.3,37.8
		c-7,8.7-19.5,10.1-30.7,10.7c-69.8,3.5-139.6-0.9-209.4-5.3c-1.7-0.1-3.7-0.3-4.8-1.6c-1.6-1.9-0.6-4.7,0.5-7
		C1019,330.6,1020.8,325.1,1023.3,319.8z"/>
	
		<linearGradient id="SVGID_36_" gradientUnits="userSpaceOnUse" x1="844.7659" y1="480.5264" x2="842.611" y2="404.0592" gradientTransform="matrix(1 0 0 -1 296.63 771.68)">
		<stop  offset="0" style="stop-color:#000000;stop-opacity:0"/>
		<stop  offset="0.91" style="stop-color:#000000;stop-opacity:0.8"/>
		<stop  offset="1" style="stop-color:#000000"/>
	</linearGradient>
	<path class="st44" d="M1023.3,319.8c10.2-0.4,20-4.1,30.1-6.1c10-2,21.3-2,29.6,3.9c0.3,0.2,0.6,0.4,0.9,0.5
		c1.3,0.3,2.2-1.3,2.9-2.5c2.8-4.7,9.3-5.2,14.7-5.2c11.2,0.1,22.5,0.1,33.3-3c11-3.1,21.1-9.4,32.5-10.6c9.1-1,18.2,1.5,27.1,3.9
		c9.5,2.6,20.1,1.4,29.5-1.4c3.8-1.1,7.5-2.5,11.5-2.8c5.7-0.4,11.5,1.7,16.2,4.9c12.1,8.1,18.4,26.4,9.3,37.8
		c-7,8.7-19.5,10.1-30.7,10.7c-69.8,3.5-139.6-0.9-209.4-5.3c-1.7-0.1-3.7-0.3-4.8-1.6c-1.6-1.9-0.6-4.7,0.5-7
		C1019,330.6,1020.8,325.1,1023.3,319.8z"/>
	<path class="st5" d="M1099.6,221.5c0,0,1.1,14.2,5.2,21.1c4.1,6.9,4.7,16.9,4.7,16.9l22.8-2.3l-5.4-21.3L1099.6,221.5z"/>
	
		<linearGradient id="SVGID_37_" gradientUnits="userSpaceOnUse" x1="821.8961" y1="502.6224" x2="819.3845" y2="535.4659" gradientTransform="matrix(1 0 0 -1 296.63 771.68)">
		<stop  offset="0" style="stop-color:#000000;stop-opacity:0"/>
		<stop  offset="0.91" style="stop-color:#000000;stop-opacity:0.8"/>
		<stop  offset="1" style="stop-color:#000000"/>
	</linearGradient>
	<path class="st45" d="M1099.9,221.5c0,0,1.1,14.2,5.2,21.1c4.1,6.9,4.7,16.9,4.7,16.9l22.8-2.3l-5.4-21.4L1099.9,221.5z"/>
	
		<linearGradient id="SVGID_38_" gradientUnits="userSpaceOnUse" x1="826.64" y1="630.7063" x2="831.4915" y2="613.8318" gradientTransform="matrix(1 0 0 -1 296.63 771.68)">
		<stop  offset="0" style="stop-color:#ECC4D7"/>
		<stop  offset="0.42" style="stop-color:#EFD4D1"/>
		<stop  offset="1" style="stop-color:#F2EAC9"/>
	</linearGradient>
	<path class="st46" d="M1120.5,138.8l-1.4,9.4c0,0,4,4.5,10.8,0v-5.9C1129.9,142.3,1123.7,135.2,1120.5,138.8z"/>
	<polygon class="st5" points="1163.2,169.9 1156,134.9 1157.8,134.2 1191.9,303.7 1190.3,303.7 	"/>
	
		<linearGradient id="SVGID_39_" gradientUnits="userSpaceOnUse" x1="822.9475" y1="648.3535" x2="835.9906" y2="641.6534" gradientTransform="matrix(1 0 0 -1 296.63 771.68)">
		<stop  offset="0" style="stop-color:#ECC4D7"/>
		<stop  offset="0.42" style="stop-color:#EFD4D1"/>
		<stop  offset="1" style="stop-color:#F2EAC9"/>
	</linearGradient>
	<path class="st47" d="M1136.1,116.7c0,0,1,4.3,1.7,9.2c0.1,0.8,2,2,1.7,2.7c-1.6,3.7-0.3,8.8-1.2,10.1c-2,3-12,6.3-17.7,0
		s-6.4-22.6,3.4-24C1133.8,113.4,1135.3,115.8,1136.1,116.7z"/>
	<path d="M1131.8,104.8c1.8-0.1,3.7-0.2,5.1,0.9c1.5,1.2,1.7,3.3,0.5,4.8c-0.4,0.5-1,0.9-1.6,1.1c1,0.2,1.2,1.6,0.6,2.5
		c-0.7,0.8-1.6,1.3-2.5,1.4c-1,0.1-2,0.5-2.8,1c-0.7,0.6-1.1,1.5-1.7,2.2s-1.5,1.2-2.4,1.4c-0.6,0.1-1.2,0.2-1.8,0.3
		c-1.3,0.5-2,1.9-2,3.3c0.1,1.4,0.4,2.7,0.8,4c0.1,0.2,0.1,0.5,0,0.7c-0.2,0.3-0.7,0.3-1,0.1s-0.6-0.4-0.9-0.6
		c-0.5-0.1-1.1,0.1-1.4,0.5s-0.5,1-0.5,1.5c-0.1,1.1,0.3,2.2,1.2,2.8c0.4,0.2,0.9,0.3,1.2,0.7c0.3,0.4,0.3,0.9,0.2,1.4l-0.6,5.5
		c0,0.1,0,0.3-0.1,0.4c-0.2,0.2-0.4,0.3-0.7,0.3c-2.2,0.3-4.4-0.7-5.6-2.6c-0.3-0.4-0.5-0.9-1-1.1c-0.5-0.2-1,0.1-1.4,0
		c-1-0.1-1.6-1.1-2-1.9c-0.8-1.3-1.3-2.8-1.7-4.3c-0.2-1.1-0.2-2.1-0.4-3.2c-0.3-1.6-1-3.1-1.2-4.8c-0.1-1.3,0.2-2.7-0.4-3.9
		c-0.2-0.3-0.3-0.6-0.4-0.9c0-0.3,0.1-0.6,0.2-0.9c0.8-1.9,1.6-3.9,3.3-5c1.3-0.9,3-1.2,4.1-2.3s1.5-2.7,2.7-3.7
		c1.9-1.5,4.8-0.7,6.7-2c1.5-1,1.8-1.1,3.2-0.2C1128.9,104.8,1130.4,104.9,1131.8,104.8z"/>
	<path class="st5" d="M1112.2,155.1c0,0,4.7-6.8,6.9-6.9s8.6,0.6,10.8,0s5,9.3,6.1,14.7c1.1,5.5-2,59.4-2,59.4l-34.3,2.3
		C1099.7,224.6,1102.1,166.7,1112.2,155.1z"/>
	
		<linearGradient id="SVGID_40_" gradientUnits="userSpaceOnUse" x1="828.8154" y1="586.2974" x2="801.7092" y2="583.6071" gradientTransform="matrix(1 0 0 -1 296.63 771.68)">
		<stop  offset="0" style="stop-color:#000000;stop-opacity:0"/>
		<stop  offset="0.91" style="stop-color:#000000;stop-opacity:0.8"/>
		<stop  offset="1" style="stop-color:#000000"/>
	</linearGradient>
	<path class="st48" d="M1112.2,155.1c0,0,4.7-6.8,6.9-6.9s8.6,0.6,10.8,0s5,9.3,6.1,14.7c1.1,5.5-2,59.4-2,59.4l-34.3,2.3
		C1099.7,224.6,1102.1,166.7,1112.2,155.1z"/>
	
		<linearGradient id="SVGID_41_" gradientUnits="userSpaceOnUse" x1="831.4761" y1="587.1558" x2="873.6983" y2="587.1558" gradientTransform="matrix(1 0 0 -1 296.63 771.68)">
		<stop  offset="0" style="stop-color:#ECC4D7"/>
		<stop  offset="0.42" style="stop-color:#EFD4D1"/>
		<stop  offset="1" style="stop-color:#F2EAC9"/>
	</linearGradient>
	<path class="st49" d="M1128.1,188.1c0,0,5,11,8,11.2s24.5-14.7,27.6-14.9c3.2-0.2,4.7,0.2,6-1.5c1.4-1.7,0-10.2,0-10.2
		s-3.8,0.8-4.8,0s-1.7-3-1.7-3s-0.7,1.2-1.7,3s-3.7,8-12.3,10.2c-8.6,2.2-9.8,2.8-9.8,2.8l-2.5-4.9L1128.1,188.1z"/>
	<path class="st5" d="M1087.3,130c2-1.2,4.5-1.3,6.6-0.2c3.2,1.7,8.9,4.2,14.1,3.8c7.8-0.6,8.2,6.8,8.1,11.3s-9,13.2-16.4,9
		c-5.1-2.8-10.2-5.2-12.9-6.5c-1.4-0.7-2.6-1.8-3.2-3.3C1082.3,140.6,1080.9,134,1087.3,130z"/>
	<path class="st5" d="M1109.7,153.9l-0.8,5.5l0,0l-9.1,59.9c0,0-8.6,5.6-14.9,6.6c-3.5,0.6-9.5-2.3-14.5-6l0,0
		c-3.9-2.9-7.2-6.2-8.5-8.7c-2.9-5.9,1.5-22.3,6.4-31.3s-5.6-20.7,4.9-28s13.7-4.5,13.7-4.5L1109.7,153.9z"/>
	
		<linearGradient id="SVGID_42_" gradientUnits="userSpaceOnUse" x1="810.504" y1="605.3606" x2="741.1" y2="540.7443" gradientTransform="matrix(1 0 0 -1 296.63 771.68)">
		<stop  offset="0" style="stop-color:#000000;stop-opacity:0"/>
		<stop  offset="0.91" style="stop-color:#000000;stop-opacity:0.8"/>
		<stop  offset="1" style="stop-color:#000000"/>
	</linearGradient>
	<path class="st50" d="M1109.7,153.9l-0.8,5.5l0,0l-9.1,59.9c0,0-8.6,5.6-14.9,6.6c-3.5,0.6-9.5-2.3-14.5-6l0,0
		c-3.9-2.9-7.2-6.2-8.5-8.7c-2.9-5.9,1.5-22.3,6.4-31.3s-5.6-20.7,4.9-28s13.7-4.5,13.7-4.5L1109.7,153.9z"/>
	
		<linearGradient id="SVGID_43_" gradientUnits="userSpaceOnUse" x1="780.5788" y1="596.1227" x2="810.3051" y2="625.5239" gradientTransform="matrix(1 0 0 -1 296.63 771.68)">
		<stop  offset="0" style="stop-color:#000000;stop-opacity:0"/>
		<stop  offset="0.91" style="stop-color:#000000;stop-opacity:0.8"/>
		<stop  offset="1" style="stop-color:#000000"/>
	</linearGradient>
	<path class="st51" d="M1077,174.4c0,0,9.6,3.3,11.4-0.9c1.8-4.3,1.3-11.1,4.8-11.8c2-0.4,4,0.5,4.9,2.3l1.7-10.1l-21.8,11.5
		L1077,174.4z"/>
	<path class="st5" d="M1124.5,192.6c-8.9,10.1-22.6,16.8-22.6,16.8V203c0,0,29-19.3,28-37.7s-13.5-15-21-5.9l-0.3-3.2l-0.2-2.3
		c0,0,8.7-13.9,20.7-7.1C1141,153.7,1136,179.5,1124.5,192.6z"/>
	<path class="st5" d="M1132.2,162c-0.5,5.4-1,25.3-30.3,43v-2.1c0,0,29-19.3,28-37.7s-13.5-15-21-5.9l-0.3-3.2
		c2.5-2.6,8.3-8,13.6-7.3C1129.2,150,1132.8,156.6,1132.2,162z"/>
	
		<linearGradient id="SVGID_44_" gradientUnits="userSpaceOnUse" x1="835.1763" y1="629.8388" x2="801.6122" y2="566.3" gradientTransform="matrix(1 0 0 -1 296.63 771.68)">
		<stop  offset="0" style="stop-color:#000000;stop-opacity:0"/>
		<stop  offset="0.91" style="stop-color:#000000;stop-opacity:0.8"/>
		<stop  offset="1" style="stop-color:#000000"/>
	</linearGradient>
	<path class="st52" d="M1132.2,162c-0.5,5.4-1,25.3-30.3,43v-2.1c0,0,29-19.3,28-37.7s-13.5-15-21-5.9l-0.3-3.2
		c2.5-2.6,8.3-8,13.6-7.3C1129.2,150,1132.8,156.6,1132.2,162z"/>
	<path class="st5" d="M1099.8,153.9c-4.6,2.1-8.8,5-12.3,8.6c-5.7,5.9-2.6,9.8-7.8,11.4c-3.9,1.2-9.1,0.1-10-1.1
		c-0.3-0.3-1.1-1.1-2.1-2.2c-2.3-2.7-5.1-7.6-1-14.7c5.7-9.8,18.2-10,18.2-10l13.5,7.1L1099.8,153.9z"/>
	
		<linearGradient id="SVGID_45_" gradientUnits="userSpaceOnUse" x1="769.9151" y1="601.0943" x2="803.0584" y2="633.8806" gradientTransform="matrix(1 0 0 -1 296.63 771.68)">
		<stop  offset="0" style="stop-color:#000000;stop-opacity:0"/>
		<stop  offset="0.91" style="stop-color:#000000;stop-opacity:0.8"/>
		<stop  offset="1" style="stop-color:#000000"/>
	</linearGradient>
	<path class="st53" d="M1098.4,153.1c-4.4,2.1-8.4,4.9-11.8,8.4c-5.7,5.9-2.6,9.8-7.8,11.4c-3.9,1.2-9.1,0.1-10-1.1
		c-0.2-0.2-0.6-0.6-1.2-1.2c-2.3-2.7-5.1-7.6-1-14.7c5.7-9.8,18.2-10,18.2-10L1098.4,153.1z"/>
	<path class="st5" d="M1109.7,153.9l-0.8,5.5l0,0l-9.1,59.9c0,0-8.6,5.6-14.9,6.6c-3.5,0.6-9.5-2.3-14.5-6c1.2,0.9,10.7,4,15,0.8
		c4.2-3.2,14.4-66.8,14.4-66.8C1102.7,155.4,1109.7,153.9,1109.7,153.9z"/>
	
		<linearGradient id="SVGID_46_" gradientUnits="userSpaceOnUse" x1="772.8073" y1="589.8774" x2="804.8795" y2="580.0599" gradientTransform="matrix(1 0 0 -1 296.63 771.68)">
		<stop  offset="0" style="stop-color:#000000;stop-opacity:0"/>
		<stop  offset="0.91" style="stop-color:#000000;stop-opacity:0.8"/>
		<stop  offset="1" style="stop-color:#000000"/>
	</linearGradient>
	<path class="st54" d="M1109.7,153.9l-0.8,5.5l0,0l-9.1,59.9c0,0-8.6,5.6-14.9,6.6c-3.5,0.6-9.5-2.3-14.5-6c1.2,0.9,10.7,4,15,0.8
		c4.2-3.2,14.4-66.8,14.4-66.8C1102.7,155.4,1109.7,153.9,1109.7,153.9z"/>
	<path class="st5" d="M1077,174.4c0,0,1.4,6.5-1.2,9.7c-2.6,3.1-10.1,28.3-6.5,35l-3.3-2.8c0,0-1.8-16,5.7-30.6
		c0,0,3.6-3.8,2.1-11.3L1077,174.4z"/>
	<path class="st5" d="M1076.3,174.4c0,0,1.4,6.5-1.2,9.7c-2.6,3.1-10.1,28.3-6.5,35l-3.3-2.8c0,0-1.8-16,5.7-30.6
		c0,0,3.6-3.8,2.1-11.3L1076.3,174.4z"/>
	<path class="st5" d="M1099.8,219.6h34.4c0,0,0.2,5.1,5.2,8.7c5.1,3.7,16.5,12.5,16.5,12.5l-16.5,15.4c0,0-18.8-12.4-18.4-12.2
		S1097.1,239.2,1099.8,219.6z"/>
	
		<linearGradient id="SVGID_47_" gradientUnits="userSpaceOnUse" x1="835.64" y1="502.7973" x2="828.2769" y2="562.3901" gradientTransform="matrix(1 0 0 -1 296.63 771.68)">
		<stop  offset="0" style="stop-color:#000000;stop-opacity:0"/>
		<stop  offset="0.91" style="stop-color:#000000;stop-opacity:0.8"/>
		<stop  offset="1" style="stop-color:#000000"/>
	</linearGradient>
	<path class="st55" d="M1099.8,219.6h34.4c0,0,0.2,5.1,5.2,8.7c5.1,3.7,16.5,12.5,16.5,12.5l-16.5,15.4c0,0-18.8-12.4-18.4-12.2
		S1097.1,239.2,1099.8,219.6z"/>
	
		<linearGradient id="SVGID_48_" gradientUnits="userSpaceOnUse" x1="848.3825" y1="504.9068" x2="863.0128" y2="504.9068" gradientTransform="matrix(1 0 0 -1 296.63 771.68)">
		<stop  offset="0" style="stop-color:#ECC4D7"/>
		<stop  offset="0.42" style="stop-color:#EFD4D1"/>
		<stop  offset="1" style="stop-color:#F2EAC9"/>
	</linearGradient>
	<path class="st56" d="M1156,240.7c0,0,4.1,4.5,3.6,9.6c-0.5,5.1-3.6,42.5-3.6,42.5h-8.9c0,0-2.5-22.2,0-30.8c2.6-8.6-2-11.1-2-11.1
		L1156,240.7z"/>
	<path class="st5" d="M1147.7,291.6h7.6c1.1,0,1.9,0.8,1.9,1.9c0,0.1,0,0.2,0,0.3l-1,7l-11-0.9v-5.7
		C1145.3,292.7,1146.4,291.6,1147.7,291.6z"/>
	<path class="st5" d="M1144,298.6h13.3c0,0,0.3,5.3,1.9,6.9s7.9,1.7,9.8,4.7c1.8,3,1.1,3.7,1.1,3.7h-26v-15.3L1144,298.6L1144,298.6
		z"/>
	<rect x="1144" y="313.3" class="st5" width="26.1" height="3.8"/>
	
		<linearGradient id="SVGID_49_" gradientUnits="userSpaceOnUse" x1="793.4943" y1="496.5568" x2="834.1522" y2="496.5568" gradientTransform="matrix(1 0 0 -1 296.63 771.68)">
		<stop  offset="0" style="stop-color:#ECC4D7"/>
		<stop  offset="0.42" style="stop-color:#EFD4D1"/>
		<stop  offset="1" style="stop-color:#F2EAC9"/>
	</linearGradient>
	<path class="st57" d="M1130.2,257.5c0,0,1.2,9.2,0,11.8s-30.5,19.6-30.5,19.6l-6.7,3.8l-3-5.6c0,0,11.6-13.1,15.3-15.5
		s10.7-2.8,12.6-6.3c1.3-2.4-0.9-6.6-0.9-6.6L1130.2,257.5z"/>
	<path class="st5" d="M1085.7,287.4l3.3-2c1.6-0.9,3.6-0.4,4.6,1.2c0,0.1,0.1,0.1,0.1,0.2l1.4,2.7c0.8,1.5,0.3,3.4-1.2,4.3l-3.2,2
		L1085.7,287.4z"/>
	<path class="st5" d="M1082.2,288.7l3.5-2.2l5.9,10c0,0-5.4,3.6-4.7,6.1c0.7,2.5,3.6,10.1-3,12.6l-12.1-20.3L1082.2,288.7z"/>
	
		<linearGradient id="SVGID_50_" gradientUnits="userSpaceOnUse" x1="847.3762" y1="465.4068" x2="873.5373" y2="465.4068" gradientTransform="matrix(1 0 0 -1 296.63 771.68)">
		<stop  offset="0" style="stop-color:#000000;stop-opacity:0"/>
		<stop  offset="0.91" style="stop-color:#000000;stop-opacity:0.8"/>
		<stop  offset="1" style="stop-color:#000000"/>
	</linearGradient>
	<path class="st58" d="M1144,298.6h13.3c0,0,0.3,5.3,1.9,6.9s7.9,1.7,9.8,4.7c1.8,3,1.1,3.7,1.1,3.7h-26v-15.3L1144,298.6
		L1144,298.6z"/>
	
		<linearGradient id="SVGID_51_" gradientUnits="userSpaceOnUse" x1="775.2056" y1="470.8068" x2="794.9614" y2="470.8068" gradientTransform="matrix(1 0 0 -1 296.63 771.68)">
		<stop  offset="0" style="stop-color:#000000;stop-opacity:0"/>
		<stop  offset="0.91" style="stop-color:#000000;stop-opacity:0.8"/>
		<stop  offset="1" style="stop-color:#000000"/>
	</linearGradient>
	<path class="st59" d="M1082.2,288.7l3.5-2.2l5.9,10c0,0-5.4,3.6-4.7,6.1c0.7,2.5,3.6,10.1-3,12.6l-12.1-20.3L1082.2,288.7z"/>
	<polygon class="st5" points="1071.8,294.7 1069.1,296.4 1081,316.8 1083.9,315.1 	"/>
	
		<linearGradient id="SVGID_52_" gradientUnits="userSpaceOnUse" x1="831.3312" y1="492.1447" x2="833.0558" y2="483.7784" gradientTransform="matrix(1 0 0 -1 324 799)">
		<stop  offset="0" style="stop-color:#000000;stop-opacity:0"/>
		<stop  offset="0.91" style="stop-color:#000000;stop-opacity:0.8"/>
		<stop  offset="1" style="stop-color:#000000"/>
	</linearGradient>
	<rect x="1144" y="313.3" class="st60" width="26.1" height="3.8"/>
	
		<linearGradient id="SVGID_53_" gradientUnits="userSpaceOnUse" x1="757.8832" y1="496.9864" x2="750.6987" y2="491.963" gradientTransform="matrix(1 0 0 -1 324 799)">
		<stop  offset="0" style="stop-color:#000000;stop-opacity:0"/>
		<stop  offset="0.91" style="stop-color:#000000;stop-opacity:0.8"/>
		<stop  offset="1" style="stop-color:#000000"/>
	</linearGradient>
	<polygon class="st61" points="1071.8,294.7 1069.1,296.4 1081,316.8 1083.9,315.1 	"/>
	<path class="st5" d="M1103.9,207.5c0,0,8.9,18.2,0,25.2s-12.8,11.5-12.8,11.5l-3.5-2.2c0,0,13.7-10.8,14.9-14.7
		c1.2-3.8-0.6-18.1-0.6-18.1L1103.9,207.5z"/>
	<path class="st5" d="M1124.5,192.4c0,0,3.5,12.3,1,19.5h4.4c0,0,3.8-11.9-1.8-23.9L1124.5,192.4z"/>
	
		<linearGradient id="SVGID_54_" gradientUnits="userSpaceOnUse" x1="836.7809" y1="572.5369" x2="824.095" y2="570.1462" gradientTransform="matrix(1 0 0 -1 296.63 771.68)">
		<stop  offset="0" style="stop-color:#000000;stop-opacity:0"/>
		<stop  offset="0.91" style="stop-color:#000000;stop-opacity:0.8"/>
		<stop  offset="1" style="stop-color:#000000"/>
	</linearGradient>
	<path class="st62" d="M1124.5,192.4c0,0,3.5,12.3,1,19.5h4.4c0,0,3.8-11.9-1.8-23.9L1124.5,192.4z"/>
	<path class="st5" d="M1127.2,155.9c-1.3-3.3-4.9-4.9-8.2-3.6c-1.2,0.5-2.3,1.3-3,2.4c-0.5,0.7-0.9,1.4-1.2,2.2
		c-4,8.8,10.4,33.6,10.4,33.6l11.8-9.6L1127.2,155.9z"/>
	
		<linearGradient id="SVGID_55_" gradientUnits="userSpaceOnUse" x1="830.5288" y1="603.2346" x2="815.0951" y2="594.2587" gradientTransform="matrix(1 0 0 -1 296.63 771.68)">
		<stop  offset="0" style="stop-color:#000000;stop-opacity:0"/>
		<stop  offset="0.91" style="stop-color:#000000;stop-opacity:0.8"/>
		<stop  offset="1" style="stop-color:#000000"/>
	</linearGradient>
	<path class="st63" d="M1127.2,155.9c-1.3-3.3-4.9-4.9-8.2-3.6c-1.2,0.5-2.3,1.3-3,2.4c-0.5,0.7-0.9,1.4-1.2,2.2
		c-4,8.8,10.4,33.6,10.4,33.6l11.8-9.6L1127.2,155.9z"/>
	
		<linearGradient id="SVGID_56_" gradientUnits="userSpaceOnUse" x1="793.7383" y1="616.4066" x2="811.3266" y2="644.5837" gradientTransform="matrix(1 0 0 -1 296.63 771.68)">
		<stop  offset="0" style="stop-color:#000000;stop-opacity:0"/>
		<stop  offset="0.91" style="stop-color:#000000;stop-opacity:0.8"/>
		<stop  offset="1" style="stop-color:#000000"/>
	</linearGradient>
	<path class="st64" d="M1087.3,130c2-1.2,4.5-1.3,6.6-0.2c3.2,1.7,8.9,4.2,14.1,3.8c7.8-0.6,8.2,6.8,8.1,11.3s-9,13.2-16.4,9
		c-5.1-2.8-10.2-5.2-12.9-6.5c-1.4-0.7-2.6-1.8-3.2-3.3C1082.3,140.6,1080.9,134,1087.3,130z"/>
	
		<linearGradient id="SVGID_57_" gradientUnits="userSpaceOnUse" x1="803.9743" y1="626.7" x2="818.4123" y2="626.7" gradientTransform="matrix(1 0 0 -1 296.63 771.68)">
		<stop  offset="0" style="stop-color:#000000;stop-opacity:0"/>
		<stop  offset="0.91" style="stop-color:#000000;stop-opacity:0.8"/>
		<stop  offset="1" style="stop-color:#000000"/>
	</linearGradient>
	<path class="st65" d="M1109.8,136.6c-0.9,0.2-1.8,0.7-2.5,1.4c-2.4,2.2-4.4,4.8-5.9,7.6c-0.6,1-0.9,2.2-0.9,3.4
		c0.2,1.2,0.7,2.4,1.5,3.3c0.2,0.3,0.5,0.6,0.8,0.8c0.4,0.2,0.8,0.3,1.3,0.2c2.8-0.1,5.1-2,7.2-3.9c1.1-0.9,2.1-2,2.9-3.2
		c1-2,1-4.3-0.1-6.2C1113.3,138.7,1111.7,136.3,1109.8,136.6z"/>
	
		<linearGradient id="SVGID_58_" gradientUnits="userSpaceOnUse" x1="807.3763" y1="626.6592" x2="816.5497" y2="626.6592" gradientTransform="matrix(1 0 0 -1 296.63 771.68)">
		<stop  offset="0" style="stop-color:#000000;stop-opacity:0"/>
		<stop  offset="0.91" style="stop-color:#000000;stop-opacity:0.8"/>
		<stop  offset="1" style="stop-color:#000000"/>
	</linearGradient>
	<path class="st66" d="M1109.9,139.6c-0.6,0.1-1.2,0.5-1.6,0.9c-1.5,1.4-2.8,3-3.7,4.9c-0.4,0.7-0.6,1.4-0.6,2.2
		c0.1,0.8,0.4,1.5,0.9,2.1c0.1,0.2,0.3,0.4,0.5,0.5c0.3,0.1,0.5,0.2,0.8,0.2c1.8-0.1,3.3-1.3,4.6-2.5c0.7-0.6,1.4-1.3,1.8-2
		c0.6-1.2,0.6-2.7-0.1-4C1112.1,141,1111.1,139.5,1109.9,139.6z"/>
</g>
<rect x="0" y="439.5" class="st3" width="1440" height="5"/>
</svg>
